<svg xmlns="http://www.w3.org/2000/svg" viewBox="0 0 28 28">
    <defs>
        <style>
            .cls-1{fill:none}.cls-2{fill:#2196f3}.cls-3{fill:#ec407a}
        </style>
    </defs>
    <g id="btn_tool_advisor" transform="translate(-2 -1)">
        <path id="Rectangle_232" d="M0 0h28v28H0z" class="cls-1" data-name="Rectangle 232" transform="translate(2 1)"/>
        <path id="Path_107" d="M28.86 17.17a11.33 11.33 0 0 0-7.36-2.94 11.23 11.23 0 0 0-7.36 2.94.39.39 0 0 0 0 .56L15 18.8a.42.42 0 0 0 .3.15.41.41 0 0 0 .31-.11 8.89 8.89 0 0 1 11.7 0 .43.43 0 0 0 .28.11.44.44 0 0 0 .3-.15l.94-1.08a.39.39 0 0 0 .03-.55z" class="cls-2" data-name="Path 107"/>
        <path id="Path_108" d="M9.55 9.13l.8 2.62.81-2.62 2.62-.81-2.62-.8-.81-2.63-.8 2.63-2.63.8z" class="cls-3" data-name="Path 108"/>
        <path id="Path_109" d="M14.64 7.47l.4-1.32 1.31-.4-1.31-.4-.4-1.31-.4 1.31-1.32.4 1.32.4z" class="cls-3" data-name="Path 109"/>
        <path id="Path_110" d="M6.07 7.47l.4-1.32 1.31-.4-1.31-.4-.4-1.31-.41 1.31-1.31.4 1.31.4z" class="cls-3" data-name="Path 110"/>
        <path id="Path_111" d="M13.73 18.06a.91.91 0 0 1-.23-.65.93.93 0 0 1 .31-.62 12.35 12.35 0 0 1 4.88-2.66l5.63-5.63a.88.88 0 0 0 0-1.21l-2.65-2.65a.81.81 0 0 0-.6-.24.84.84 0 0 0-.61.24L3.24 21.86a.84.84 0 0 0-.24.61.81.81 0 0 0 .24.6l2.65 2.65a.88.88 0 0 0 1.21 0l7.11-7.11zm7.34-11.6l1.43 1.43-3.92 3.93-1.44-1.43z" class="cls-3" data-name="Path 111"/>
        <path id="Path_112" d="M21.5 18a7.67 7.67 0 0 0-5 1.89.4.4 0 0 0-.05.57l1 1.15a.42.42 0 0 0 .29.14.41.41 0 0 0 .31-.09 5.3 5.3 0 0 1 6.81 0 .48.48 0 0 0 .28.1.4.4 0 0 0 .29-.15l1-1.15a.4.4 0 0 0 0-.57A7.71 7.71 0 0 0 21.5 18z" class="cls-2" data-name="Path 112"/>
        <path id="Path_113" d="M19 22.64a.41.41 0 0 0-.06.58l2.27 2.6a.44.44 0 0 0 .33.14.43.43 0 0 0 .32-.14l2.27-2.59a.42.42 0 0 0 .1-.3.43.43 0 0 0-.15-.28 4 4 0 0 0-5.08-.01z" class="cls-2" data-name="Path 113"/>
    </g>
</svg>
