<svg xmlns="http://www.w3.org/2000/svg" viewBox="0 0 28 28">
    <defs>
        <style>
            .cls-1{fill:none}.cls-2{fill:#2196f3}.cls-3{fill:#ec407a}
        </style>
    </defs>
    <g id="btn_tool_add" transform="translate(-2 -1)">
        <path id="Rectangle_230" d="M0 0h28v28H0z" class="cls-1" data-name="Rectangle 230" transform="translate(2 1)"/>
        <path id="Path_103" d="M26.18 8.62A17.6 17.6 0 0 0 14.69 4 17.57 17.57 0 0 0 3.22 8.61a.62.62 0 0 0-.06.89l1.46 1.67a.67.67 0 0 0 .46.22.71.71 0 0 0 .49-.16 13.87 13.87 0 0 1 18.25 0 .65.65 0 0 0 .44.16.67.67 0 0 0 .46-.22l1.52-1.67a.62.62 0 0 0-.06-.88z" class="cls-2" data-name="Path 103"/>
        <path id="Path_104" d="M28.2 17a5.969 5.969 0 1 1-2.2-2.23A6.06 6.06 0 0 1 28.2 17zm-1.7 3.51v-1A.51.51 0 0 0 26 19h-2v-2a.51.51 0 0 0-.5-.5h-1a.47.47 0 0 0-.35.15.49.49 0 0 0-.15.35v2h-2a.47.47 0 0 0-.35.15.49.49 0 0 0-.15.35v1a.51.51 0 0 0 .5.5h2v2a.51.51 0 0 0 .5.5h1a.49.49 0 0 0 .35-.15A.47.47 0 0 0 24 23v-2h2a.49.49 0 0 0 .35-.15.47.47 0 0 0 .15-.39z" class="cls-3" data-name="Path 104"/>
        <path id="Path_105" d="M16.5 20a6.37 6.37 0 0 1 .87-3.26c.05-.09.11-.16.16-.24a6.26 6.26 0 0 0-6.8.69.69.69 0 0 0-.24.44.63.63 0 0 0 .16.47l3.54 4a.64.64 0 0 0 .5.23.66.66 0 0 0 .51-.23l1.34-1.53q-.034-.284-.04-.57z" class="cls-2" data-name="Path 105"/>
        <path id="Path_106" d="M19.74 14.33a6.55 6.55 0 0 1 2.9-.85.6.6 0 0 0-.19-.61 12 12 0 0 0-7.76-3 12 12 0 0 0-7.75 2.95.62.62 0 0 0-.07.89l1.58 1.79a.68.68 0 0 0 .45.23.72.72 0 0 0 .49-.16 8.33 8.33 0 0 1 5.3-1.93A8.23 8.23 0 0 1 19 14.88a7.4 7.4 0 0 1 .74-.55z" class="cls-2" data-name="Path 106"/>
        <g id="DIMENTION">
            <path id="Rectangle_231" d="M0 0h28v28H0z" class="cls-1" data-name="Rectangle 231" transform="translate(2 1)"/>
        </g>
    </g>
</svg>
