<svg xmlns="http://www.w3.org/2000/svg" id="btn_tool_zone" viewBox="0 0 28 28">
    <defs>
        <style>
            .cls-1{fill:#2196f3}.cls-2{fill:none}
        </style>
    </defs>
    <path id="Path_138" d="M22.5 3.25h-17A2.25 2.25 0 0 0 3.25 5.5v17a2.25 2.25 0 0 0 2.25 2.25h17a2.25 2.25 0 0 0 2.25-2.25v-17a2.25 2.25 0 0 0-2.25-2.25zm0 20h-17a.76.76 0 0 1-.75-.75v-17a.76.76 0 0 1 .75-.75h17a.76.76 0 0 1 .75.75v17a.76.76 0 0 1-.75.75z" class="cls-1" data-name="Path 138"/>
    <path id="Path_139" d="M21.53 12.09a11.56 11.56 0 0 0-7.53-3 11.56 11.56 0 0 0-7.53 3 .41.41 0 0 0 0 .58l1 1.1a.44.44 0 0 0 .3.15.42.42 0 0 0 .23-.12 9.11 9.11 0 0 1 12 0 .44.44 0 0 0 .29.11.51.51 0 0 0 .3-.15l1-1.1a.41.41 0 0 0-.06-.57z" class="cls-1" data-name="Path 139"/>
    <path id="Path_140" d="M14 12.94a7.86 7.86 0 0 0-5.09 1.93.4.4 0 0 0 0 .58l1 1.18a.42.42 0 0 0 .3.15.47.47 0 0 0 .32-.1 5.4 5.4 0 0 1 7 0 .43.43 0 0 0 .29.1.44.44 0 0 0 .3-.15l1-1.17a.4.4 0 0 0-.05-.58A7.85 7.85 0 0 0 14 12.94z" class="cls-1" data-name="Path 140"/>
    <path id="Path_141" d="M11.4 17.69a.4.4 0 0 0-.16.28.45.45 0 0 0 .1.31l2.32 2.66a.48.48 0 0 0 .34.14.45.45 0 0 0 .33-.14l2.32-2.65a.4.4 0 0 0 .1-.31.45.45 0 0 0-.16-.29 4.11 4.11 0 0 0-5.19 0z" class="cls-1" data-name="Path 141"/>
    <g id="DIMENTION">
        <path id="Rectangle_266" d="M0 0h28v28H0z" class="cls-2" data-name="Rectangle 266"/>
        <path id="Rectangle_267" d="M0 0h28v28H0z" class="cls-2" data-name="Rectangle 267"/>
    </g>
</svg>
