<svg xmlns="http://www.w3.org/2000/svg" viewBox="0 0 28 28">
    <defs>
        <style>
            .cls-1{fill:#2196f3}.cls-2{fill:none}
        </style>
    </defs>
    <g id="btn_tool_site_location" data-name="btn_tool_site location" transform="translate(-1 -1)">
        <path id="Path_137" d="M24.75 13.58a.81.81 0 0 0-.58-.25H22.3a7.37 7.37 0 0 0-2-3.62 7.46 7.46 0 0 0-3.62-2V5.83a.81.81 0 0 0-.25-.58.79.79 0 0 0-.6-.25h-1.66a.78.78 0 0 0-.59.25.81.81 0 0 0-.25.58v1.86a7.59 7.59 0 0 0-5.64 5.64H5.83a.81.81 0 0 0-.58.25.79.79 0 0 0-.25.59v1.66a.79.79 0 0 0 .25.59.81.81 0 0 0 .58.25h1.86a7.59 7.59 0 0 0 5.64 5.64v1.86a.81.81 0 0 0 .25.58.78.78 0 0 0 .59.25h1.66a.79.79 0 0 0 .59-.25.81.81 0 0 0 .25-.58v-1.86a7.46 7.46 0 0 0 3.62-2 7.37 7.37 0 0 0 2-3.62h1.87a.81.81 0 0 0 .58-.25.79.79 0 0 0 .25-.59v-1.68a.79.79 0 0 0-.24-.59zm-6.17 2.84a.83.83 0 0 0 .59.25h1.42a5.89 5.89 0 0 1-3.92 3.92v-1.42a.85.85 0 0 0-.84-.84h-1.66a.82.82 0 0 0-.59.25.83.83 0 0 0-.25.59v1.42a5.89 5.89 0 0 1-3.92-3.92h1.42a.85.85 0 0 0 .84-.84v-1.66a.85.85 0 0 0-.84-.84H9.41a5.89 5.89 0 0 1 3.92-3.92v1.42a.83.83 0 0 0 .25.59.82.82 0 0 0 .59.25h1.66a.85.85 0 0 0 .84-.84V9.41a5.89 5.89 0 0 1 3.92 3.92h-1.42a.85.85 0 0 0-.84.84v1.66a.83.83 0 0 0 .25.59z" class="cls-1" data-name="Path 137"/>
        <g id="DIMENTION">
            <path id="Rectangle_265" d="M0 0h28v28H0z" class="cls-2" data-name="Rectangle 265" transform="translate(1 1)"/>
        </g>
    </g>
</svg>
