<svg xmlns="http://www.w3.org/2000/svg" viewBox="0 0 28 28">
    <defs>
        <style>
            .cls-1{fill:#2196f3}.cls-2{fill:#5b686d}.cls-3{fill:none}
        </style>
    </defs>
    <g id="btn_tool_channel_L" transform="translate(-1 -1)">
        <path id="Path_118" d="M18.05 16.39l-1.66 3 1.66 3h3.33l1.66-3-1.66-3z" class="cls-1" data-name="Path 118"/>
        <path id="Path_119" d="M22.78 14.65l-.64-.38H19L20.85 11v-.71l-2.42-4.41-.64-.38h-4.85l-.64.38-2.43 4.38V11l1.83 3.3H7.86l-.64.38L4.79 19v.71l2.43 4.38.64.38h4.85l.64-.38 1.65-3 1.65 3 .64.38h4.85l.64-.38 2.43-4.38V19zM13.37 7h4l2 3.66-2 3.65h-4l-2-3.65zM15 17.63l-1-1.9h2.1zM12.28 23h-4l-2-3.65 2-3.66h4l1.94 3.51v.29zm9.43 0h-4l-1.94-3.51v-.29l1.94-3.51h4l2 3.65z" class="cls-2" data-name="Path 119"/>
        <g id="DIMENTION">
            <path id="Rectangle_247" d="M0 0h28v28H0z" class="cls-3" data-name="Rectangle 247" transform="translate(1 1)"/>
        </g>
    </g>
</svg>
