<svg xmlns="http://www.w3.org/2000/svg" id="btn_tool_obstacle" viewBox="0 0 28 28">
    <defs>
        <style>
            .cls-1{fill:#bbdefb}.cls-2{fill:#5b686d}.cls-3{fill:none}
        </style>
    </defs>
    <path id="Rectangle_253" d="M0 0h7.74v6.63H0z" class="cls-1" data-name="Rectangle 253" transform="translate(13.45 10.92)"/>
    <path id="Rectangle_254" d="M0 0h6.63v6.63H0z" class="cls-1" data-name="Rectangle 254" transform="translate(4.05 10.92)"/>
    <path id="Rectangle_255" d="M0 0h6.63v6.63H0z" class="cls-1" data-name="Rectangle 255" transform="translate(7.92 4.29)"/>
    <path id="Rectangle_256" d="M0 0h5.53v6.63H0z" class="cls-1" data-name="Rectangle 256" transform="translate(9.03 17.55)"/>
    <path id="Rectangle_257" d="M0 0h1.11v6.63H0z" class="cls-1" data-name="Rectangle 257" transform="translate(4.61 17.55)"/>
    <path id="Rectangle_258" d="M0 0h4.42v6.63H0z" class="cls-1" data-name="Rectangle 258" transform="translate(17.59 4.29)"/>
    <path id="Rectangle_259" d="M0 0h5.53v6.63H0z" class="cls-1" data-name="Rectangle 259" transform="translate(18.3 17.55)"/>
    <path id="Path_130" d="M23.39 3.38H4.61a1.23 1.23 0 0 0-1.23 1.23v18.78a1.24 1.24 0 0 0 1.23 1.24h18.78a1.25 1.25 0 0 0 1.24-1.24V4.61a1.24 1.24 0 0 0-1.24-1.23zm-.12 7.3h-5V4.73h5zm-5 12.59H9.45v-4.85h8.85zM8.35 4.73h8.84v5.95H8.35zm4.42 7.06v5.53h-8v-5.53zm1.1 5.53v-5.53h9.4v5.53zM7.24 4.73v5.95H4.73V4.73zM4.73 18.42h3.62v4.85H4.73zm14.67 4.85v-4.85h3.87v4.85z" class="cls-2" data-name="Path 130"/>
    <g id="DIMENTION">
        <path id="Rectangle_260" d="M0 0h28v28H0z" class="cls-3" data-name="Rectangle 260"/>
        <path id="Rectangle_261" d="M0 0h28v28H0z" class="cls-3" data-name="Rectangle 261"/>
    </g>
</svg>
