<svg xmlns="http://www.w3.org/2000/svg" viewBox="0 0 28 28">
    <defs>
        <style>
            .cls-1{fill:#2196f3}.cls-2{fill:#5b686d}.cls-3{fill:none}
        </style>
    </defs>
    <g id="btn_tool_save_img" data-name="btn_tool_save img" transform="translate(-863 -76)">
        <g id="Group_188" data-name="Group 188" transform="translate(869 81)">
            <path id="Path_183" d="M5.9 9.7a1.816 1.816 0 0 1-1.4.6 1.816 1.816 0 0 1-1.4-.6 2.106 2.106 0 0 1-.5-1.3A1.974 1.974 0 0 1 3.2 7a1.76 1.76 0 0 1 1.3-.6 1.974 1.974 0 0 1 1.4.6 1.816 1.816 0 0 1 .6 1.4 1.984 1.984 0 0 1-.6 1.3z" class="cls-1" data-name="Path 183"/>
            <path id="Path_184" d="M12.9 12.2v3.2H2.6v-1.9l1.9-1.9 1.3 1.3L9.6 9z" class="cls-1" data-name="Path 184"/>
            <path id="Path_185" d="M15.2 4.6a2.177 2.177 0 0 0-.5-.8L11.6.7a2.768 2.768 0 0 0-.8-.5A1.512 1.512 0 0 0 10 0H1a.908.908 0 0 0-.7.3.908.908 0 0 0-.3.7v16a.908.908 0 0 0 .3.7.908.908 0 0 0 .7.3h13.5a1.025 1.025 0 0 0 1-1V5.5a3.178 3.178 0 0 0-.3-.9zm-4.9-3.2c.2.1.3.1.4.2l3.1 3.1a.52.52 0 0 1 .2.4h-3.8V1.4zm3.8 15.3H1.3V1.3H9v4.2a.713.713 0 0 0 .3.6 1.493 1.493 0 0 0 .7.3h4.2v10.3z" class="cls-2" data-name="Path 185"/>
        </g>
        <path id="Rectangle_1021" d="M0 0h28v28H0z" class="cls-3" data-name="Rectangle 1021" transform="translate(863 76)"/>
    </g>
</svg>
