<svg xmlns="http://www.w3.org/2000/svg" width="50" height="52.038" viewBox="0 0 50 52.038"><defs><style>.a{fill:#aaa;}</style></defs><path class="a" d="M20.668,6.782a6.782,6.782,0,1,1,6.782,6.782A6.782,6.782,0,0,1,20.668,6.782ZM42.232,27.128h0a5.564,5.564,0,0,1,11.128,0h0a5.564,5.564,0,1,1-11.128,0ZM36.8,41.515a5.04,5.04,0,1,1,5.04,5.04,5.039,5.039,0,0,1-5.04-5.04ZM22.886,47.474a4.564,4.564,0,1,1,4.564,4.564A4.564,4.564,0,0,1,22.886,47.474ZM8.929,41.515a4.133,4.133,0,1,1,4.133,4.133,4.133,4.133,0,0,1-4.133-4.133ZM3.36,27.128A3.744,3.744,0,1,1,7.1,30.872,3.744,3.744,0,0,1,3.36,27.128ZM9.672,12.741h0a3.391,3.391,0,1,1,6.782,0h0a3.391,3.391,0,1,1-6.782,0Zm38.308,0A6.143,6.143,0,1,1,41.837,6.6a6.143,6.143,0,0,1,6.143,6.143Z" transform="translate(-3.36)"/></svg>