<svg xmlns="http://www.w3.org/2000/svg" width="15.733" height="15" viewBox="0 0 15.733 15"><defs><style>.a{fill:#5b686d;}</style></defs><g transform="translate(-2143.5 -2631.5)"><path class="a" d="M17.857,22.064H13.75v-1h4.107C17.855,19.477,17.866,23.672,17.857,22.064Z" transform="translate(2135.642 2622.371)"/><path class="a" d="M6.41,8.069h0L4.329,5H.71A.713.713,0,0,1,0,4.364V.714A.671.671,0,0,1,.637,0H4.292A.713.713,0,0,1,5,.636V4.207L7.472,7.871a4.99,4.99,0,0,0-1.062.2Z" transform="translate(2148.498 2631.5)"/><path class="a" d="M9.821,12.3a.971.971,0,0,0,.757.329h.279l-3.128,4.1H9.785a.714.714,0,0,1,.714.636v3.65a.714.714,0,0,1-.636.714H6.214a.671.671,0,0,1-.714-.636v-3.65a.714.714,0,0,1,.636-.714h.343Z" transform="translate(2138 2624.771)"/><path class="a" d="M22.692,15.51a3.038,3.038,0,1,1-1.12-1.135,3.085,3.085,0,0,1,1.12,1.135ZM21.827,17.3v-.509a.26.26,0,0,0-.255-.26H20.554V15.51a.26.26,0,0,0-.255-.255h-.509a.239.239,0,0,0-.178.076.249.249,0,0,0-.076.178v1.018H18.518a.239.239,0,0,0-.178.076.249.249,0,0,0-.076.178v.509a.26.26,0,0,0,.255.255h1.018v1.018a.26.26,0,0,0,.255.255H20.3a.249.249,0,0,0,.178-.076.239.239,0,0,0,.076-.178V17.547h1.018a.249.249,0,0,0,.178-.076.239.239,0,0,0,.076-.2Z" transform="translate(2136.136 2626.427)"/></g></svg>