<?xml version="1.0" encoding="UTF-8"?>
<svg id="Layer_1" xmlns="http://www.w3.org/2000/svg" xmlns:xlink="http://www.w3.org/1999/xlink" version="1.1" viewBox="0 0 512 512">
  <!-- Generator: Adobe Illustrator 29.2.1, SVG Export Plug-In . SVG Version: 2.1.0 Build 116)  -->
  <defs>
    <style>
      .st0 {
        fill: #496e2d;
      }

      .st1 {
        fill: #eee;
      }
    </style>
  </defs>
  <circle class="st0" cx="256" cy="256.2" r="256"/>
  <g>
    <path class="st1" d="M144.7,306.2c0,18.5,15,33.5,33.4,33.5h100.2c0,7.4,2.9,14.4,8.1,19.7,5.2,5.2,12.3,8.1,19.7,8.1h33.4c7.4,0,14.4-2.9,19.7-8.1,5.2-5.2,8.1-12.3,8.1-19.7v-33.5h-222.6Z"/>
    <path class="st1" d="M370.1,144.9v78c0,12.2-10,22.2-22.3,22.2v33.4c30.7,0,55.7-25,55.7-55.7v-77.9h-33.5.1Z"/>
    <path class="st1" d="M130.8,222.9c0,12.2-10,22.2-22.3,22.2v33.4c30.7,0,55.7-25,55.7-55.7v-77.9h-33.4v78Z"/>
    <rect class="st1" x="317.9" y="144.9" width="33.4" height="78"/>
    <path class="st1" d="M267.9,189.4c0,1.5-.6,2.9-1.6,4-1,1.1-2.5,1.6-4,1.6s-2.9-.6-4-1.6-1.6-2.5-1.6-4v-44.5h-33.4v44.5c-.2,1.3-.8,2.6-1.9,3.5-1,.9-2.3,1.4-3.7,1.4s-2.7-.5-3.7-1.4c-1-.9-1.7-2.1-1.9-3.5v-44.5h-33.4v44.5c0,10.3,4.1,20.3,11.4,27.6,7.3,7.3,17.2,11.4,27.6,11.4s15.7-2.4,22.2-7c6.5,4.6,14.3,7,22.2,7s3.4,0,5-.3c-1.2,4.8-4,9.1-7.9,12.2-3.9,3.1-8.7,4.8-13.7,4.8v33.4c30.6,0,55.6-25,55.6-55.7v-77.9h-33.3v44.5Z"/>
    <path class="st1" d="M182,245.1h50v33.4h-50v-33.4Z"/>
  </g>
</svg>